<svg width="16" height="16" viewBox="0 0 16 16" fill="none" xmlns="http://www.w3.org/2000/svg">
<path d="M12.6667 5.33332C13.0203 5.33332 13.3594 5.19285 13.6095 4.9428C13.8595 4.69275 14 4.35361 14 3.99999C14 3.64637 13.8595 3.30723 13.6095 3.05718C13.3594 2.80713 13.0203 2.66666 12.6667 2.66666H3.33333C2.97971 2.66666 2.64057 2.80713 2.39052 3.05718C2.14048 3.30723 2 3.64637 2 3.99999C2 4.35361 2.14048 4.69275 2.39052 4.9428C2.64057 5.19285 2.97971 5.33332 3.33333 5.33332M12.6667 5.33332H3.33333M12.6667 5.33332V12C12.6667 12.3536 12.5262 12.6928 12.2761 12.9428C12.0261 13.1928 11.687 13.3333 11.3333 13.3333H4.66667C4.31304 13.3333 3.97391 13.1928 3.72386 12.9428C3.47381 12.6928 3.33333 12.3536 3.33333 12V5.33332M6.66667 7.99999H9.33333" stroke="#656565" stroke-linecap="round" stroke-linejoin="round"/>
</svg>
