<svg width="32" height="32" viewBox="0 0 32 32" fill="none" xmlns="http://www.w3.org/2000/svg">
<rect width="32" height="32" rx="12" fill="#3D3D3D"/>
<path d="M20 16H20.0067M12 16H12.0067M14 16C14 16.5304 14.2107 17.0391 14.5858 17.4142C14.9609 17.7893 15.4696 18 16 18C16.5304 18 17.0391 17.7893 17.4142 17.4142C17.7893 17.0391 18 16.5304 18 16C18 15.4696 17.7893 14.9609 17.4142 14.5858C17.0391 14.2107 16.5304 14 16 14C15.4696 14 14.9609 14.2107 14.5858 14.5858C14.2107 14.9609 14 15.4696 14 16ZM10 13.3333C10 12.9797 10.1405 12.6406 10.3905 12.3905C10.6406 12.1405 10.9797 12 11.3333 12H20.6667C21.0203 12 21.3594 12.1405 21.6095 12.3905C21.8595 12.6406 22 12.9797 22 13.3333V18.6667C22 19.0203 21.8595 19.3594 21.6095 19.6095C21.3594 19.8595 21.0203 20 20.6667 20H11.3333C10.9797 20 10.6406 19.8595 10.3905 19.6095C10.1405 19.3594 10 19.0203 10 18.6667V13.3333Z" stroke="white" stroke-linecap="round" stroke-linejoin="round"/>
</svg>
