<svg width="76" height="12" viewBox="0 0 76 12" fill="none" xmlns="http://www.w3.org/2000/svg">
<path d="M0.628629 0.695999H2.40975V11H0.628629V0.695999ZM3.95535 11H1.70319V9.36608H3.91119C4.42148 9.36608 4.89252 9.29248 5.32431 9.14528C5.7561 8.98827 6.129 8.76747 6.44303 8.48288C6.76687 8.18848 7.01711 7.82048 7.19375 7.37888C7.3802 6.93728 7.47343 6.42699 7.47343 5.848C7.47343 5.26901 7.3802 4.75872 7.19375 4.31712C7.01711 3.87552 6.76687 3.50752 6.44303 3.21312C6.129 2.91872 5.7561 2.69792 5.32431 2.55072C4.89252 2.40352 4.42148 2.32992 3.91119 2.32992H1.70319V0.695999H3.95535C5.00538 0.695999 5.92783 0.911893 6.72271 1.34368C7.51759 1.76565 8.13583 2.36427 8.57743 3.13952C9.02884 3.90496 9.25455 4.80779 9.25455 5.848C9.25455 6.88821 9.02884 7.79595 8.57743 8.5712C8.13583 9.33664 7.51759 9.93525 6.72271 10.367C5.92783 10.789 5.00538 11 3.95535 11ZM11.5828 11V9.46912H16.779V11H11.5828ZM11.5828 2.22688V0.695999H16.779V2.22688H11.5828ZM11.5828 6.23072V4.72928H16.4846V6.23072H11.5828ZM10.5083 0.695999H12.2158V11H10.5083V0.695999ZM19.1532 7.67328C19.3789 8.07563 19.6193 8.424 19.8745 8.7184C20.1394 9.0128 20.4289 9.24341 20.7429 9.41024C21.0668 9.57707 21.4201 9.66048 21.8028 9.66048C22.2738 9.66048 22.6565 9.53291 22.9509 9.27776C23.2453 9.02261 23.3925 8.68896 23.3925 8.2768C23.3925 7.90389 23.2993 7.60459 23.1129 7.37888C22.9362 7.14336 22.6811 6.94709 22.3474 6.79008C22.0138 6.62325 21.631 6.46133 21.1993 6.30432C20.9441 6.216 20.6595 6.09824 20.3455 5.95104C20.0315 5.79403 19.7322 5.60267 19.4476 5.37696C19.163 5.14144 18.9275 4.85685 18.741 4.5232C18.5546 4.17973 18.4613 3.76757 18.4613 3.28672C18.4613 2.73717 18.6036 2.25632 18.8882 1.84416C19.1728 1.42219 19.5555 1.09344 20.0364 0.85792C20.527 0.622399 21.0815 0.504639 21.6997 0.504639C22.3082 0.504639 22.8381 0.617492 23.2895 0.843199C23.7409 1.05909 24.1236 1.33387 24.4377 1.66752C24.7517 2.00117 24.9921 2.34955 25.1589 2.71264L23.7605 3.50752C23.6231 3.25237 23.4563 3.01685 23.2601 2.80096C23.0638 2.57525 22.8332 2.39861 22.5682 2.27104C22.3131 2.13365 22.0138 2.06496 21.6703 2.06496C21.1894 2.06496 20.8362 2.17781 20.6105 2.40352C20.3847 2.61941 20.2719 2.87456 20.2719 3.16896C20.2719 3.43392 20.3504 3.67435 20.5074 3.89024C20.6742 4.09632 20.9294 4.29259 21.2729 4.47904C21.6163 4.66549 22.0628 4.85685 22.6124 5.05312C22.9264 5.16107 23.2355 5.29845 23.5397 5.46528C23.8538 5.63211 24.1334 5.83819 24.3788 6.08352C24.6339 6.32885 24.84 6.62325 24.997 6.96672C25.154 7.30037 25.2325 7.69291 25.2325 8.14432C25.2325 8.62517 25.1344 9.05696 24.9381 9.43968C24.7517 9.8224 24.4965 10.1462 24.1727 10.4112C23.8489 10.6663 23.4809 10.8626 23.0687 11C22.6663 11.1472 22.2444 11.2208 21.8028 11.2208C21.2042 11.2208 20.6448 11.103 20.1247 10.8675C19.6144 10.6222 19.163 10.2983 18.7705 9.896C18.3877 9.49365 18.0835 9.05696 17.8578 8.58592L19.1532 7.67328ZM26.5588 0.695999H28.3252V11H26.5588V0.695999ZM35.0727 7.08448V5.61248H40.0334C40.053 6.36811 39.9549 7.08448 39.739 7.7616C39.5231 8.42891 39.1992 9.02261 38.7675 9.54272C38.3357 10.0628 37.8008 10.475 37.163 10.7792C36.5251 11.0736 35.794 11.2208 34.9697 11.2208C34.1944 11.2208 33.4781 11.0932 32.8206 10.8381C32.1631 10.5731 31.589 10.2002 31.0983 9.71936C30.6175 9.23851 30.2446 8.66933 29.9796 8.01184C29.7147 7.35435 29.5822 6.63307 29.5822 5.848C29.5822 5.06293 29.7147 4.34656 29.9796 3.69888C30.2544 3.04139 30.6371 2.47712 31.1278 2.00608C31.6184 1.52523 32.1925 1.15723 32.85 0.902079C33.5075 0.637119 34.2239 0.504639 34.9991 0.504639C35.6763 0.504639 36.2896 0.597866 36.8391 0.78432C37.3985 0.970773 37.8941 1.23573 38.3259 1.5792C38.7576 1.91285 39.1256 2.32011 39.4299 2.80096L38.0167 3.74304C37.7322 3.25237 37.3347 2.85984 36.8244 2.56544C36.3239 2.27104 35.7155 2.12384 34.9991 2.12384C34.3416 2.12384 33.7381 2.28085 33.1886 2.59488C32.6488 2.89909 32.2171 3.33088 31.8932 3.89024C31.5792 4.43979 31.4222 5.09237 31.4222 5.848C31.4222 6.59381 31.5792 7.25131 31.8932 7.82048C32.2072 8.37984 32.6341 8.81653 33.1739 9.13056C33.7136 9.44459 34.322 9.6016 34.9991 9.6016C35.4604 9.6016 35.8725 9.53781 36.2356 9.41024C36.5987 9.28267 36.9127 9.10112 37.1777 8.8656C37.4427 8.63008 37.6635 8.36021 37.8401 8.056C38.0167 7.75179 38.1492 7.42795 38.2375 7.08448H35.0727ZM48.895 0.695999H50.6026V11.5152L43.0806 4.0816V11H41.3731V0.1808L48.895 7.6144V0.695999ZM53.5348 11V9.46912H58.731V11H53.5348ZM53.5348 2.22688V0.695999H58.731V2.22688H53.5348ZM53.5348 6.23072V4.72928H58.4366V6.23072H53.5348ZM52.4603 0.695999H54.1678V11H52.4603V0.695999ZM62.5625 6.08352H64.4319L67.9353 11H65.8303L62.5625 6.08352ZM60.4281 0.695999H62.165V11H60.4281V0.695999ZM61.4585 2.19744V0.695999H63.6076C64.3632 0.695999 65.0158 0.828479 65.5653 1.09344C66.1149 1.3584 66.5418 1.73131 66.846 2.21216C67.16 2.6832 67.317 3.24256 67.317 3.89024C67.317 4.53792 67.16 5.10219 66.846 5.58304C66.5418 6.06389 66.1149 6.4368 65.5653 6.70176C65.0158 6.96672 64.3632 7.0992 63.6076 7.0992H61.4585V5.65664H63.534C63.9363 5.65664 64.2847 5.59285 64.5791 5.46528C64.8735 5.32789 65.1041 5.13163 65.2709 4.87648C65.4378 4.61152 65.5212 4.29749 65.5212 3.9344C65.5212 3.56149 65.4378 3.24747 65.2709 2.99232C65.1041 2.73717 64.8735 2.54091 64.5791 2.40352C64.2847 2.26613 63.9363 2.19744 63.534 2.19744H61.4585ZM69.4179 7.67328C69.6437 8.07563 69.8841 8.424 70.1392 8.7184C70.4042 9.0128 70.6937 9.24341 71.0077 9.41024C71.3315 9.57707 71.6848 9.66048 72.0675 9.66048C72.5386 9.66048 72.9213 9.53291 73.2157 9.27776C73.5101 9.02261 73.6573 8.68896 73.6573 8.2768C73.6573 7.90389 73.5641 7.60459 73.3776 7.37888C73.201 7.14336 72.9458 6.94709 72.6122 6.79008C72.2785 6.62325 71.8958 6.46133 71.464 6.30432C71.2089 6.216 70.9243 6.09824 70.6103 5.95104C70.2962 5.79403 69.9969 5.60267 69.7123 5.37696C69.4278 5.14144 69.1922 4.85685 69.0058 4.5232C68.8193 4.17973 68.7261 3.76757 68.7261 3.28672C68.7261 2.73717 68.8684 2.25632 69.153 1.84416C69.4376 1.42219 69.8203 1.09344 70.3011 0.85792C70.7918 0.622399 71.3463 0.504639 71.9645 0.504639C72.5729 0.504639 73.1029 0.617492 73.5543 0.843199C74.0057 1.05909 74.3884 1.33387 74.7024 1.66752C75.0165 2.00117 75.2569 2.34955 75.4237 2.71264L74.0253 3.50752C73.8879 3.25237 73.7211 3.01685 73.5248 2.80096C73.3286 2.57525 73.0979 2.39861 72.833 2.27104C72.5778 2.13365 72.2785 2.06496 71.9351 2.06496C71.4542 2.06496 71.1009 2.17781 70.8752 2.40352C70.6495 2.61941 70.5367 2.87456 70.5367 3.16896C70.5367 3.43392 70.6152 3.67435 70.7722 3.89024C70.939 4.09632 71.1942 4.29259 71.5376 4.47904C71.8811 4.66549 72.3276 4.85685 72.8771 5.05312C73.1912 5.16107 73.5003 5.29845 73.8045 5.46528C74.1185 5.63211 74.3982 5.83819 74.6435 6.08352C74.8987 6.32885 75.1048 6.62325 75.2618 6.96672C75.4188 7.30037 75.4973 7.69291 75.4973 8.14432C75.4973 8.62517 75.3992 9.05696 75.2029 9.43968C75.0165 9.8224 74.7613 10.1462 74.4375 10.4112C74.1136 10.6663 73.7456 10.8626 73.3335 11C72.9311 11.1472 72.5091 11.2208 72.0675 11.2208C71.4689 11.2208 70.9096 11.103 70.3895 10.8675C69.8792 10.6222 69.4278 10.2983 69.0352 9.896C68.6525 9.49365 68.3483 9.05696 68.1226 8.58592L69.4179 7.67328Z" fill="#3D3D3D"/>
</svg>
