<svg width="16" height="16" viewBox="0 0 16 16" fill="none" xmlns="http://www.w3.org/2000/svg">
<path d="M4.66663 4.66667H3.99996C3.64634 4.66667 3.3072 4.80714 3.05715 5.05719C2.8071 5.30724 2.66663 5.64638 2.66663 6V12C2.66663 12.3536 2.8071 12.6928 3.05715 12.9428C3.3072 13.1929 3.64634 13.3333 3.99996 13.3333H9.99996C10.3536 13.3333 10.6927 13.1929 10.9428 12.9428C11.1928 12.6928 11.3333 12.3536 11.3333 12V11.3333M10.6666 3.33333L12.6666 5.33333M13.59 4.39007C13.8525 4.12751 14 3.77139 14 3.40007C14 3.02875 13.8525 2.67264 13.59 2.41007C13.3274 2.14751 12.9713 2 12.6 2C12.2286 2 11.8725 2.14751 11.61 2.41007L5.99996 8.00007V10.0001H7.99996L13.59 4.39007Z" stroke="#7C7C7C" stroke-linecap="round" stroke-linejoin="round"/>
</svg>
