<svg width="32" height="32" viewBox="0 0 32 32" fill="none" xmlns="http://www.w3.org/2000/svg">
<rect width="32" height="32" rx="12" fill="#3D3D3D"/>
<path d="M16 14L10.686 16.952C10.478 17.0675 10.3048 17.2365 10.1841 17.4415C10.0635 17.6466 9.99994 17.8801 10 18.118V18.6667C10 19.0203 10.1405 19.3594 10.3905 19.6095C10.6406 19.8595 10.9797 20 11.3333 20H12M16 14L21.314 16.952C21.522 17.0675 21.6952 17.2365 21.8159 17.4415C21.9365 17.6466 22.0001 17.8801 22 18.118V18.6667C22 19.0203 21.8595 19.3594 21.6095 19.6095C21.3594 19.8595 21.0203 20 20.6667 20H20M16 14C15.0287 13.46 14.6713 12.4447 14.6667 11.3333C14.6667 10.9797 14.8071 10.6406 15.0572 10.3905C15.3072 10.1405 15.6464 10 16 10C16.3536 10 16.6928 10.1405 16.9428 10.3905C17.1929 10.6406 17.3333 10.9797 17.3333 11.3333M12 20C12 19.6464 12.1405 19.3072 12.3905 19.0572C12.6406 18.8071 12.9797 18.6667 13.3333 18.6667H18.6667C19.0203 18.6667 19.3594 18.8071 19.6095 19.0572C19.8595 19.3072 20 19.6464 20 20M12 20V20.6667C12 21.0203 12.1405 21.3594 12.3905 21.6095C12.6406 21.8595 12.9797 22 13.3333 22H18.6667C19.0203 22 19.3594 21.8595 19.6095 21.6095C19.8595 21.3594 20 21.0203 20 20.6667V20" stroke="white" stroke-linecap="round" stroke-linejoin="round"/>
</svg>
