<svg width="16" height="16" viewBox="0 0 16 16" fill="none" xmlns="http://www.w3.org/2000/svg">
<path d="M10.6009 13.4063V13.4129M12.694 11.7396V11.7463M13.847 9.33333V9.34M13.847 6.66667V6.67333M12.694 4.26042V4.26708M10.6009 2.59375V2.60042M8.00065 2V2.00667M5.40039 2.59375V2.60042M3.30729 4.26042V4.26708M2.1543 6.66667V6.67333M2.1543 9.33333V9.34M3.30729 11.7396V11.7463M5.40039 13.4063V13.4129M8.00065 14V14.0067M7.33398 8C7.33398 8.17681 7.40422 8.34638 7.52925 8.4714C7.65427 8.59643 7.82384 8.66667 8.00065 8.66667C8.17746 8.66667 8.34703 8.59643 8.47206 8.4714C8.59708 8.34638 8.66732 8.17681 8.66732 8C8.66732 7.82319 8.59708 7.65362 8.47206 7.5286C8.34703 7.40357 8.17746 7.33333 8.00065 7.33333C7.82384 7.33333 7.65427 7.40357 7.52925 7.5286C7.40422 7.65362 7.33398 7.82319 7.33398 8ZM4.66732 8C4.66732 8.88406 5.01851 9.7319 5.64363 10.357C6.26875 10.9821 7.1166 11.3333 8.00065 11.3333C8.88471 11.3333 9.73255 10.9821 10.3577 10.357C10.9828 9.7319 11.334 8.88406 11.334 8C11.334 7.11595 10.9828 6.2681 10.3577 5.64298C9.73255 5.01786 8.88471 4.66667 8.00065 4.66667C7.1166 4.66667 6.26875 5.01786 5.64363 5.64298C5.01851 6.2681 4.66732 7.11595 4.66732 8Z" stroke="#16A34A" stroke-linecap="round" stroke-linejoin="round"/>
</svg>
