<svg width="32" height="32" viewBox="0 0 32 32" fill="none" xmlns="http://www.w3.org/2000/svg">
<rect width="32" height="32" rx="12" fill="#3D3D3D"/>
<path d="M11.3333 19.3335C11.3333 19.6871 11.4737 20.0263 11.7238 20.2763C11.9738 20.5264 12.313 20.6668 12.6666 20.6668C13.0202 20.6668 13.3593 20.5264 13.6094 20.2763C13.8594 20.0263 13.9999 19.6871 13.9999 19.3335M11.3333 19.3335C11.3333 18.9799 11.4737 18.6407 11.7238 18.3907C11.9738 18.1406 12.313 18.0002 12.6666 18.0002C13.0202 18.0002 13.3593 18.1406 13.6094 18.3907C13.8594 18.6407 13.9999 18.9799 13.9999 19.3335M11.3333 19.3335H9.99992V16.6668M13.9999 19.3335H17.9999M17.9999 19.3335C17.9999 19.6871 18.1404 20.0263 18.3904 20.2763C18.6405 20.5264 18.9796 20.6668 19.3333 20.6668C19.6869 20.6668 20.026 20.5264 20.2761 20.2763C20.5261 20.0263 20.6666 19.6871 20.6666 19.3335M17.9999 19.3335C17.9999 18.9799 18.1404 18.6407 18.3904 18.3907C18.6405 18.1406 18.9796 18.0002 19.3333 18.0002C19.6869 18.0002 20.026 18.1406 20.2761 18.3907C20.5261 18.6407 20.6666 18.9799 20.6666 19.3335M20.6666 19.3335H21.9999V15.3335M9.33325 11.3335H16.6666V19.3335M21.9999 15.3335H16.6666M21.9999 15.3335L19.9999 12.0002H16.6666M9.99992 14.0002H12.6666" stroke="white" stroke-linecap="round" stroke-linejoin="round"/>
</svg>
